<svg width="218" height="58" viewBox="0 0 218 58" fill="none" xmlns="http://www.w3.org/2000/svg">
<path d="M1.56668 7C0.701234 7 0 7.6714 0 8.50003C0 14.2896 4.91971 19.0001 10.9666 19.0001C11.832 19.0001 12.5333 18.3287 12.5333 17.5C12.5332 11.7104 7.61355 7 1.56668 7Z" fill="#FFA733"/>
<path d="M3.34473 10.2021C6.23693 10.8482 8.51395 13.0284 9.18881 15.7976C6.29661 15.1515 4.01959 12.9713 3.34473 10.2021Z" fill="#EBE2CB"/>
<path d="M45.4334 7C39.3865 7 34.4668 11.7104 34.4668 17.5C34.4668 18.3287 35.168 19.0001 36.0335 19.0001C42.0803 19.0001 47.0001 14.2896 47.0001 8.50003C47.0001 7.6714 46.2983 7 45.4334 7Z" fill="#CC7400"/>
<path d="M37.8115 15.7976C38.4863 13.0285 40.7634 10.8483 43.6556 10.2021C42.9807 12.9714 40.7036 15.1515 37.8115 15.7976Z" fill="#E6D7B7"/>
<path d="M17.2332 0C14.6415 0 12.5332 2.01861 12.5332 4.5V12.5972L21.9331 8.8824V4.5C21.9331 2.01861 19.8248 0 17.2332 0Z" fill="#FFA733"/>
<path d="M29.7664 0C27.1747 0 25.0664 2.01861 25.0664 4.5V8.88231L34.4663 12.3232V4.5C34.4663 2.01861 32.358 0 29.7664 0Z" fill="#CC7400"/>
<path d="M39.2288 32.6399C39.1975 32.69 39.1556 32.73 39.1243 32.7799L38.8006 33.1399L36.7743 35.4399C34.3618 33.6099 31.5313 32.2599 28.4398 31.5599C27.3954 31.3099 26.3195 31.1499 25.2125 31.0799C24.6485 31.0199 24.0741 30.9999 23.4996 30.9999C22.9251 30.9999 22.3508 31.02 21.7867 31.0799C20.6797 31.1499 19.6038 31.3099 18.5594 31.5599C15.4679 32.2599 12.6375 33.6099 10.2249 35.4399L8.19856 33.1399L7.87492 32.7799C7.84358 32.7299 7.80173 32.6899 7.77039 32.6399C6.4962 30.8099 6.1202 28.5399 6.75725 26.42L9.6503 16.74C10.0367 15.4299 10.6634 14.2 11.4572 13.09C12.0526 12.26 12.7418 11.4899 13.5147 10.81C16.1572 8.44999 19.7292 7 23.4996 7C27.27 7 30.842 8.44999 33.4845 10.81C34.2574 11.49 34.9465 12.26 35.542 13.09C36.3358 14.2 36.9624 15.4299 37.3489 16.74L40.2419 26.42C40.8789 28.54 40.5029 30.81 39.2288 32.6399Z" fill="#FF9827"/>
<path d="M39.2292 32.6399C39.1979 32.69 39.156 32.73 39.1247 32.7799L38.801 33.1399L36.7747 35.4399C34.3622 33.6099 31.5317 32.2599 28.4402 31.5599C27.3958 31.3099 26.3199 31.1499 25.2129 31.0799C24.6489 31.0199 24.0745 30.9999 23.5 30.9999V7C27.2704 7 30.8424 8.44999 33.4849 10.81C34.2578 11.49 34.9469 12.26 35.5424 13.09C36.3362 14.2 36.9628 15.4299 37.3493 16.74L40.2424 26.42C40.8793 28.54 40.5033 30.81 39.2292 32.6399Z" fill="#E58613"/>
<path d="M40.2423 26.42L37.3538 16.7418C36.9616 15.4278 36.3373 14.2024 35.5418 13.0884C34.949 12.2578 34.2567 11.4944 33.4842 10.8062C28.443 15.0256 25.212 21.1803 25.0768 28.05C25.0664 28.2001 25.0664 28.35 25.0664 28.5001C25.0664 29.3701 25.1187 30.2301 25.2126 31.0801C26.3196 31.1501 27.3955 31.3101 28.4399 31.5601C31.5319 32.258 34.3635 33.6068 36.778 35.4389L38.7975 33.1448L39.1225 32.7756C39.1602 32.7326 39.1954 32.6878 39.2281 32.6409C40.5048 30.8067 40.8746 28.5397 40.2423 26.42Z" fill="#FFB655"/>
<path d="M21.9229 28.05C21.7877 21.1803 18.5568 15.0256 13.5155 10.8062C12.743 11.4944 12.0507 12.2578 11.4578 13.0884C10.6624 14.2024 10.038 15.4278 9.64586 16.7418L6.75741 26.4199C6.12505 28.5395 6.49477 30.8066 7.77178 32.6406C7.80443 32.6875 7.83953 32.7324 7.87734 32.7754L8.20239 33.1445L10.2218 35.4386C12.6363 33.6064 15.4679 32.2578 18.56 31.5599C19.6044 31.3098 20.6802 31.1498 21.7873 31.0798C21.8813 30.2298 21.9335 29.3698 21.9335 28.4998C21.9333 28.35 21.9333 28.2 21.9229 28.05Z" fill="#FFE477"/>
<path d="M38.8003 33.1398L36.774 35.4398L29.181 44.0698C28.2933 45.2798 26.8623 45.9998 25.3166 45.9998H21.682C20.1362 45.9998 18.7052 45.2798 17.8175 44.0698L10.2245 35.4398L8.19824 33.1398C11.2376 30.8198 14.8409 29.1798 18.7992 28.4398C19.8124 28.2398 20.8568 28.1098 21.9221 28.0498C22.4443 28.0198 22.9665 27.9998 23.4992 27.9998C24.0319 27.9998 24.5541 28.0198 25.0763 28.0498C26.1416 28.1098 27.186 28.2398 28.1991 28.4398C32.1577 29.1798 35.761 30.8198 38.8003 33.1398Z" fill="#FF9827"/>
<path d="M38.8009 33.1398L36.7747 35.4398L29.1817 44.0698C28.294 45.2798 26.863 45.9998 25.3172 45.9998H23.5V27.9998C24.0327 27.9998 24.5549 28.0198 25.0771 28.0498C26.1424 28.1098 27.1868 28.2398 28.1999 28.4398C32.1583 29.1798 35.7616 30.8198 38.8009 33.1398Z" fill="#E58613"/>
<path d="M20.3665 36.9998C21.2317 36.9998 21.9332 36.3282 21.9332 35.4998C21.9332 34.6713 21.2317 33.9998 20.3665 33.9998C19.5012 33.9998 18.7998 34.6713 18.7998 35.4998C18.7998 36.3282 19.5012 36.9998 20.3665 36.9998Z" fill="black"/>
<path d="M26.6331 36.9998C27.4983 36.9998 28.1998 36.3282 28.1998 35.4998C28.1998 34.6713 27.4983 33.9998 26.6331 33.9998C25.7678 33.9998 25.0664 34.6713 25.0664 35.4998C25.0664 36.3282 25.7678 36.9998 26.6331 36.9998Z" fill="black"/>
<path d="M32.3772 25.0001C33.2425 25.0001 33.9439 24.3285 33.9439 23.5C33.9439 22.6716 33.2425 22 32.3772 22C31.512 22 30.8105 22.6716 30.8105 23.5C30.8105 24.3285 31.512 25.0001 32.3772 25.0001Z" fill="black"/>
<path d="M14.6223 25.0001C15.4876 25.0001 16.189 24.3285 16.189 23.5C16.189 22.6716 15.4876 22 14.6223 22C13.7571 22 13.0557 22.6716 13.0557 23.5C13.0557 24.3285 13.7571 25.0001 14.6223 25.0001Z" fill="black"/>
<path d="M20.3665 36.9998C21.2317 36.9998 21.9332 36.3282 21.9332 35.4998C21.9332 34.6713 21.2317 33.9998 20.3665 33.9998C19.5012 33.9998 18.7998 34.6713 18.7998 35.4998C18.7998 36.3282 19.5012 36.9998 20.3665 36.9998Z" fill="#957856"/>
<path d="M14.9518 18.1782C18.2589 18.1782 20.9408 20.568 20.9408 23.515C20.9408 26.4627 18.2589 28.8525 14.9518 28.8525C11.6438 28.8525 8.96191 26.4627 8.96191 23.515C8.96198 20.568 11.6438 18.1782 14.9518 18.1782Z" fill="#2BA5F7"/>
<path d="M11.2099 23.515C11.2099 20.9105 13.3052 18.7425 16.0757 18.2735C15.7115 18.2118 15.3361 18.1782 14.9518 18.1782C11.6438 18.1782 8.96191 20.568 8.96191 23.515C8.96191 26.4627 11.6438 28.8525 14.9518 28.8525C15.3361 28.8525 15.7115 28.8189 16.0757 28.7572C13.3052 28.2882 11.2099 26.1201 11.2099 23.515Z" fill="#2197D8"/>
<path d="M31.2858 18.1782C34.5929 18.1782 37.2748 20.568 37.2748 23.515C37.2748 26.4627 34.5929 28.8525 31.2858 28.8525C27.9778 28.8525 25.2959 26.4627 25.2959 23.515C25.296 20.568 27.9778 18.1782 31.2858 18.1782Z" fill="#2BA5F7"/>
<path d="M17.1846 26.9282C16.9876 26.9282 16.7937 26.8453 16.6723 26.6904C16.4747 26.4386 16.5437 26.0916 16.8264 25.9156C17.708 25.3665 18.2342 24.4691 18.2342 23.5151C18.2342 22.8705 18.0026 22.2589 17.5643 21.7463C17.3553 21.5019 17.4083 21.1527 17.6826 20.9664C17.9569 20.7802 18.3488 20.8273 18.5578 21.0718C19.1632 21.7799 19.4832 22.6247 19.4832 23.5151C19.4832 24.8323 18.7575 26.0707 17.542 26.8277C17.4329 26.8956 17.3082 26.9282 17.1846 26.9282Z" fill="white"/>
<path d="M27.5439 23.515C27.5439 20.9105 29.6392 18.7425 32.4096 18.2735C32.0455 18.2118 31.6701 18.1782 31.2858 18.1782C27.9778 18.1782 25.2959 20.568 25.2959 23.515C25.2959 26.4627 27.9778 28.8525 31.2858 28.8525C31.6701 28.8525 32.0455 28.8189 32.4096 28.7572C29.6392 28.2882 27.5439 26.1201 27.5439 23.515Z" fill="#2197D8"/>
<path d="M33.5195 26.9282C33.3225 26.9282 33.1286 26.8453 33.0072 26.6904C32.8097 26.4386 32.8786 26.0916 33.1613 25.9156C34.0428 25.3664 34.5691 24.4691 34.5691 23.5151C34.5691 22.8705 34.3375 22.2589 33.8992 21.7463C33.6902 21.5018 33.7431 21.1526 34.0175 20.9664C34.2917 20.7802 34.6837 20.8273 34.8926 21.0718C35.4981 21.78 35.818 22.6249 35.818 23.5151C35.818 24.8323 35.0923 26.0706 33.8768 26.8277C33.7679 26.8956 33.6431 26.9282 33.5195 26.9282Z" fill="white"/>
<path d="M36.6402 6.62451C34.8448 6.62451 33.3841 7.9261 33.3841 9.52598V10.5772C33.3841 10.8845 33.6636 11.1337 34.0086 11.1337C34.3534 11.1337 34.633 10.8846 34.633 10.5772V9.52604C34.633 8.53986 35.5334 7.73747 36.6402 7.73747C37.747 7.73747 38.6474 8.5398 38.6474 9.52604V21.7363C38.6474 22.2255 38.3225 22.6473 37.8556 22.8426C37.4796 19.9087 34.6777 17.6219 31.2863 17.6219C27.8501 17.6219 25.0187 19.9692 24.7029 22.9588H21.5353C21.2195 19.9693 18.388 17.6219 14.9519 17.6219C11.5605 17.6219 8.75857 19.9087 8.38259 22.8426C7.91564 22.6473 7.59078 22.2255 7.59078 21.7363V9.52604C7.59078 8.53986 8.49118 7.73747 9.59789 7.73747C10.7046 7.73747 11.605 8.53975 11.605 9.52604V10.5773C11.605 10.8846 11.8846 11.1337 12.2295 11.1337C12.5744 11.1337 12.854 10.8846 12.854 10.5773V9.52604C12.854 7.92621 11.3933 6.62457 9.59789 6.62457C7.80246 6.62457 6.3418 7.9261 6.3418 9.52604V21.7363C6.3418 22.8402 7.20602 23.767 8.36312 24.0093C8.64598 27.0284 11.4919 29.4086 14.9518 29.4086C18.3879 29.4086 21.2193 27.0612 21.5351 24.0716H24.7028C25.0186 27.0611 27.85 29.4086 31.2861 29.4086C34.746 29.4086 37.592 27.0284 37.8748 24.0093C39.032 23.767 39.8963 22.8402 39.8963 21.7363V9.52604C39.8962 7.9261 38.4356 6.62451 36.6402 6.62451ZM14.9519 28.2957C11.9938 28.2957 9.58708 26.1512 9.58708 23.5152C9.58708 20.8792 11.9937 18.7347 14.9519 18.7347C17.91 18.7347 20.3166 20.8792 20.3166 23.5152C20.3166 26.1512 17.91 28.2957 14.9519 28.2957ZM31.2862 28.2957C28.3281 28.2957 25.9214 26.1512 25.9214 23.5152C25.9214 20.8792 28.328 18.7347 31.2862 18.7347C34.2444 18.7347 36.651 20.8792 36.651 23.5152C36.651 26.1512 34.2443 28.2957 31.2862 28.2957Z" fill="#333333"/>
<path d="M32.3794 20.7287C32.7243 20.7287 33.0039 20.4795 33.0039 20.1722C33.0039 19.8649 32.7243 19.6157 32.3794 19.6157C32.0345 19.6157 31.7549 19.8649 31.7549 20.1722C31.7549 20.4795 32.0345 20.7287 32.3794 20.7287Z" fill="white"/>
<path d="M16.0464 20.7287C16.3913 20.7287 16.6709 20.4795 16.6709 20.1722C16.6709 19.8649 16.3913 19.6157 16.0464 19.6157C15.7015 19.6157 15.4219 19.8649 15.4219 20.1722C15.4219 20.4795 15.7015 20.7287 16.0464 20.7287Z" fill="white"/>
<path d="M65.48 29.2C65.0367 28.3833 64.395 27.765 63.555 27.345C62.7383 26.9017 61.77 26.68 60.65 26.68C58.7133 26.68 57.1617 27.3217 55.995 28.605C54.8283 29.865 54.245 31.5567 54.245 33.68C54.245 35.9433 54.8517 37.7167 56.065 39C57.3017 40.26 58.9933 40.89 61.14 40.89C62.61 40.89 63.8467 40.5167 64.85 39.77C65.8767 39.0233 66.6233 37.95 67.09 36.55H59.495V32.14H72.515V37.705C72.0717 39.1983 71.3133 40.5867 70.24 41.87C69.19 43.1533 67.8483 44.1917 66.215 44.985C64.5817 45.7783 62.7383 46.175 60.685 46.175C58.2583 46.175 56.0883 45.65 54.175 44.6C52.285 43.5267 50.8033 42.045 49.73 40.155C48.68 38.265 48.155 36.1067 48.155 33.68C48.155 31.2533 48.68 29.095 49.73 27.205C50.8033 25.2917 52.285 23.81 54.175 22.76C56.065 21.6867 58.2233 21.15 60.65 21.15C63.59 21.15 66.0633 21.8617 68.07 23.285C70.1 24.7083 71.4417 26.68 72.095 29.2H65.48ZM165.93 29.2C165.486 28.3833 164.845 27.765 164.005 27.345C163.188 26.9017 162.22 26.68 161.1 26.68C159.163 26.68 157.611 27.3217 156.445 28.605C155.278 29.865 154.695 31.5567 154.695 33.68C154.695 35.9433 155.301 37.7167 156.515 39C157.751 40.26 159.443 40.89 161.59 40.89C163.06 40.89 164.296 40.5167 165.3 39.77C166.326 39.0233 167.073 37.95 167.54 36.55H159.945V32.14H172.965V37.705C172.521 39.1983 171.763 40.5867 170.69 41.87C169.64 43.1533 168.298 44.1917 166.665 44.985C165.031 45.7783 163.188 46.175 161.135 46.175C158.708 46.175 156.538 45.65 154.625 44.6C152.735 43.5267 151.253 42.045 150.18 40.155C149.13 38.265 148.605 36.1067 148.605 33.68C148.605 31.2533 149.13 29.095 150.18 27.205C151.253 25.2917 152.735 23.81 154.625 22.76C156.515 21.6867 158.673 21.15 161.1 21.15C164.04 21.15 166.513 21.8617 168.52 23.285C170.55 24.7083 171.891 26.68 172.545 29.2H165.93Z" fill="#F88A1E"/>
<path d="M78.6833 29.4633C77.8779 29.4633 77.2157 29.2306 76.6967 28.7653C76.1956 28.2821 75.945 27.6915 75.945 26.9935C75.945 26.2776 76.1956 25.687 76.6967 25.2217C77.2157 24.7385 77.8779 24.4969 78.6833 24.4969C79.4707 24.4969 80.115 24.7385 80.6161 25.2217C81.1351 25.687 81.3947 26.2776 81.3947 26.9935C81.3947 27.6915 81.1351 28.2821 80.6161 28.7653C80.115 29.2306 79.4707 29.4633 78.6833 29.4633ZM80.9651 31.0203V46H76.3746V31.0203H80.9651ZM89.6878 33.5169C90.2247 32.6936 90.8958 32.0494 91.7012 31.584C92.5065 31.1008 93.4014 30.8592 94.3857 30.8592V35.7182H93.124C91.9786 35.7182 91.1195 35.9688 90.5468 36.4699C89.9741 36.9531 89.6878 37.8122 89.6878 39.0471V46H85.0972V31.0203H89.6878V33.5169ZM96.4725 38.4833C96.4725 36.9442 96.7589 35.5929 97.3316 34.4296C97.9222 33.2663 98.7186 32.3715 99.7208 31.7451C100.723 31.1187 101.842 30.8055 103.076 30.8055C104.132 30.8055 105.054 31.0203 105.842 31.4498C106.647 31.8793 107.264 32.4431 107.694 33.1411V31.0203H112.284V46H107.694V43.8792C107.246 44.5772 106.62 45.1409 105.815 45.5705C105.027 46 104.106 46.2148 103.05 46.2148C101.833 46.2148 100.723 45.9016 99.7208 45.2752C98.7186 44.6309 97.9222 43.7271 97.3316 42.5638C96.7589 41.3826 96.4725 40.0224 96.4725 38.4833ZM107.694 38.5101C107.694 37.3647 107.372 36.4609 106.727 35.7988C106.101 35.1366 105.331 34.8055 104.419 34.8055C103.506 34.8055 102.727 35.1366 102.083 35.7988C101.457 36.4431 101.144 37.3379 101.144 38.4833C101.144 39.6287 101.457 40.5414 102.083 41.2215C102.727 41.8837 103.506 42.2148 104.419 42.2148C105.331 42.2148 106.101 41.8837 106.727 41.2215C107.372 40.5593 107.694 39.6555 107.694 38.5101ZM123.928 34.8323H121.458V46H116.867V34.8323H115.203V31.0203H116.867V30.5908C116.867 28.7474 117.395 27.3514 118.451 26.4029C119.507 25.4365 121.055 24.9532 123.095 24.9532C123.435 24.9532 123.686 24.9622 123.847 24.9801V28.8727C122.97 28.819 122.353 28.9442 121.995 29.2485C121.637 29.5527 121.458 30.0986 121.458 30.8861V31.0203H123.928V34.8323ZM141.306 46L139.561 44.3087C137.825 45.6331 135.749 46.2953 133.333 46.2953C131.883 46.2953 130.621 46.0626 129.548 45.5973C128.474 45.1141 127.642 44.443 127.051 43.5839C126.478 42.707 126.192 41.6868 126.192 40.5235C126.192 39.3424 126.505 38.2775 127.132 37.3289C127.776 36.3625 128.733 35.5751 130.004 34.9666C129.539 34.3939 129.208 33.848 129.011 33.329C128.814 32.7921 128.715 32.2104 128.715 31.584C128.715 30.6892 128.948 29.8749 129.413 29.1411C129.879 28.4073 130.55 27.8346 131.427 27.423C132.322 26.9935 133.378 26.7787 134.595 26.7787C135.829 26.7787 136.876 27.0024 137.736 27.4499C138.595 27.8973 139.239 28.4968 139.668 29.2485C140.098 30.0002 140.295 30.8234 140.259 31.7183H135.937C135.955 31.2351 135.829 30.8682 135.561 30.6176C135.31 30.3492 134.97 30.2149 134.541 30.2149C134.111 30.2149 133.753 30.3402 133.467 30.5908C133.181 30.8413 133.038 31.1635 133.038 31.5572C133.038 31.933 133.154 32.3268 133.387 32.7384C133.637 33.15 134.022 33.6243 134.541 34.1612L139.131 38.6444C139.167 38.5549 139.212 38.4475 139.266 38.3222C139.337 38.1969 139.409 38.0538 139.48 37.8927L140.474 36.2014H145.064L143.776 38.537C143.293 39.5929 142.738 40.5951 142.111 41.5437L146.648 46H141.306ZM133.548 42.5906C134.747 42.5906 135.812 42.2506 136.742 41.5705L132.554 37.5169C131.266 38.1791 130.621 39.0739 130.621 40.2014C130.621 40.8815 130.881 41.4542 131.4 41.9195C131.937 42.3669 132.653 42.5906 133.548 42.5906ZM181.415 26.1344V46H176.824V26.1344H181.415ZM184.634 38.4833C184.634 36.9442 184.92 35.5929 185.493 34.4296C186.084 33.2663 186.88 32.3715 187.882 31.7451C188.885 31.1187 190.003 30.8055 191.238 30.8055C192.294 30.8055 193.216 31.0203 194.003 31.4498C194.808 31.8793 195.426 32.4431 195.855 33.1411V31.0203H200.446V46H195.855V43.8792C195.408 44.5772 194.782 45.1409 193.976 45.5705C193.189 46 192.267 46.2148 191.211 46.2148C189.994 46.2148 188.885 45.9016 187.882 45.2752C186.88 44.6309 186.084 43.7271 185.493 42.5638C184.92 41.3826 184.634 40.0224 184.634 38.4833ZM195.855 38.5101C195.855 37.3647 195.533 36.4609 194.889 35.7988C194.263 35.1366 193.493 34.8055 192.58 34.8055C191.668 34.8055 190.889 35.1366 190.245 35.7988C189.618 36.4431 189.305 37.3379 189.305 38.4833C189.305 39.6287 189.618 40.5414 190.245 41.2215C190.889 41.8837 191.668 42.2148 192.58 42.2148C193.493 42.2148 194.263 41.8837 194.889 41.2215C195.533 40.5593 195.855 39.6555 195.855 38.5101ZM210.666 46.2148C209.36 46.2148 208.196 45.9911 207.176 45.5436C206.156 45.0962 205.351 44.4877 204.76 43.7181C204.17 42.9307 203.839 42.0537 203.767 41.0873H208.304C208.358 41.6063 208.599 42.0269 209.029 42.349C209.458 42.6712 209.986 42.8322 210.613 42.8322C211.185 42.8322 211.624 42.7249 211.928 42.5101C212.25 42.2774 212.411 41.9821 212.411 41.6242C212.411 41.1947 212.188 40.8815 211.74 40.6846C211.293 40.4699 210.568 40.2372 209.566 39.9866C208.492 39.7361 207.597 39.4766 206.881 39.2081C206.165 38.9218 205.548 38.4833 205.029 37.8927C204.51 37.2842 204.25 36.4699 204.25 35.4498C204.25 34.5907 204.483 33.8122 204.948 33.1142C205.431 32.3983 206.129 31.8346 207.042 31.423C207.973 31.0113 209.073 30.8055 210.344 30.8055C212.223 30.8055 213.7 31.2708 214.774 32.2015C215.865 33.1321 216.492 34.367 216.653 35.9061H212.411C212.34 35.3871 212.107 34.9755 211.713 34.6713C211.337 34.367 210.836 34.2149 210.21 34.2149C209.673 34.2149 209.261 34.3223 208.975 34.537C208.689 34.7339 208.545 35.0113 208.545 35.3692C208.545 35.7988 208.769 36.1209 209.217 36.3357C209.682 36.5504 210.398 36.7652 211.364 36.98C212.474 37.2663 213.378 37.5527 214.076 37.839C214.774 38.1075 215.382 38.5549 215.901 39.1813C216.438 39.7898 216.715 40.613 216.733 41.6511C216.733 42.528 216.483 43.3155 215.982 44.0134C215.498 44.6935 214.792 45.2304 213.861 45.6242C212.948 46.0179 211.883 46.2148 210.666 46.2148Z" fill="white"/>
</svg>
