<svg width="133" height="30" viewBox="0 0 133 30" fill="none" xmlns="http://www.w3.org/2000/svg">
<path d="M20.8682 8.34411C20.8682 6.15293 18.2418 5.03045 16.6581 6.54479L8.50237 14.3435C8.01119 14.8131 7.73337 15.4632 7.73337 16.1428V21.6594C7.73337 23.8506 10.3598 24.973 11.9434 23.4587L20.0992 15.66C20.5903 15.1903 20.8682 14.5403 20.8682 13.8607V8.34411Z" fill="#D4FF94"/>
<path opacity="0.7" d="M7.73145 8.02602C7.73145 5.88318 5.20419 4.74149 3.59628 6.15796L0.843513 8.58297C0.307021 9.05559 -0.000377966 9.73605 -0.000377966 10.451V16.2872C-0.000377966 18.4301 2.52688 19.5718 4.1348 18.1553L6.88756 15.7303C7.42405 15.2576 7.73145 14.5772 7.73145 13.8622V8.02602Z" fill="white"/>
<path d="M34 8.31213C34 6.12541 31.3828 5.00106 29.7967 6.5064L21.6409 14.2469C21.1457 14.7169 20.8652 15.3698 20.8652 16.0526V21.5011C20.8652 23.6879 23.4824 24.8122 25.0685 23.3069L33.2243 15.5664C33.7195 15.0963 34 14.4435 34 13.7607V8.31213Z" fill="#99FC03"/>
<path d="M55.2213 5.15456V8.83237H50.2281V24H45.6375V8.83237H40.6443V5.15456H55.2213Z" fill="#97F704"/>
<path d="M62.9211 11.5169C63.458 10.6936 64.1292 10.0494 64.9345 9.58404C65.7399 9.10082 66.6347 8.85922 67.6191 8.85922V13.7182H66.3573C65.2119 13.7182 64.3529 13.9688 63.7802 14.4699C63.2075 14.9531 62.9211 15.8122 62.9211 17.0471V24H58.3306V9.02029H62.9211V11.5169ZM84.7393 16.2685C84.7393 16.6981 84.7124 17.1455 84.6587 17.6108H74.2696C74.3412 18.5414 74.6365 19.2573 75.1555 19.7584C75.6924 20.2416 76.3456 20.4833 77.1152 20.4833C78.2606 20.4833 79.057 20 79.5044 19.0336H84.3903C84.1397 20.0179 83.6833 20.9038 83.0212 21.6913C82.3769 22.4788 81.5626 23.0962 80.5782 23.5436C79.5939 23.9911 78.4932 24.2148 77.2763 24.2148C75.8087 24.2148 74.5022 23.9016 73.3568 23.2752C72.2114 22.6488 71.3166 21.7539 70.6723 20.5906C70.028 19.4273 69.7059 18.0672 69.7059 16.5101C69.7059 14.9531 70.0191 13.5929 70.6454 12.4296C71.2897 11.2663 72.1846 10.3715 73.33 9.74511C74.4754 9.11872 75.7908 8.80552 77.2763 8.80552C78.7259 8.80552 80.0145 9.10977 81.142 9.71827C82.2695 10.3268 83.1464 11.1948 83.7728 12.3223C84.4171 13.4498 84.7393 14.7652 84.7393 16.2685ZM80.0413 15.0605C80.0413 14.273 79.7729 13.6466 79.236 13.1813C78.6991 12.716 78.0279 12.4833 77.2226 12.4833C76.453 12.4833 75.7998 12.7071 75.2629 13.1545C74.7438 13.6019 74.4217 14.2372 74.2964 15.0605H80.0413ZM97.1206 24L92.5569 17.7182V24H87.9664V4.13443H92.5569V15.1142L97.0938 9.02029H102.758L96.53 16.537L102.812 24H97.1206ZM119.487 16.2685C119.487 16.6981 119.46 17.1455 119.407 17.6108H109.018C109.089 18.5414 109.384 19.2573 109.903 19.7584C110.44 20.2416 111.094 20.4833 111.863 20.4833C113.009 20.4833 113.805 20 114.252 19.0336H119.138C118.888 20.0179 118.431 20.9038 117.769 21.6913C117.125 22.4788 116.311 23.0962 115.326 23.5436C114.342 23.9911 113.241 24.2148 112.024 24.2148C110.557 24.2148 109.25 23.9016 108.105 23.2752C106.959 22.6488 106.065 21.7539 105.42 20.5906C104.776 19.4273 104.454 18.0672 104.454 16.5101C104.454 14.9531 104.767 13.5929 105.393 12.4296C106.038 11.2663 106.933 10.3715 108.078 9.74511C109.223 9.11872 110.539 8.80552 112.024 8.80552C113.474 8.80552 114.762 9.10977 115.89 9.71827C117.017 10.3268 117.894 11.1948 118.521 12.3223C119.165 13.4498 119.487 14.7652 119.487 16.2685ZM114.789 15.0605C114.789 14.273 114.521 13.6466 113.984 13.1813C113.447 12.716 112.776 12.4833 111.971 12.4833C111.201 12.4833 110.548 12.7071 110.011 13.1545C109.492 13.6019 109.17 14.2372 109.044 15.0605H114.789ZM127.305 11.5169C127.842 10.6936 128.513 10.0494 129.318 9.58404C130.124 9.10082 131.018 8.85922 132.003 8.85922V13.7182H130.741C129.596 13.7182 128.737 13.9688 128.164 14.4699C127.591 14.9531 127.305 15.8122 127.305 17.0471V24H122.714V9.02029H127.305V11.5169Z" fill="white"/>
</svg>
